name C:\Users\tom_v\MusculoskeletalSpecialization_revisited\Results\Case_17\motion.mot
datacolumns 32
datarows 13
range 0.28115918 0.34863739
endheader 
time	pelvis_tilt	pelvis_list	pelvis_rotation	pelvis_tx	pelvis_ty	pelvis_tz	hip_flexion_r	hip_adduction_r	hip_rotation_r	knee_angle_r	ankle_angle_r	subtalar_angle_r	mtp_angle_r	hip_flexion_l	hip_adduction_l	hip_rotation_l	knee_angle_l	ankle_angle_l	subtalar_angle_l	mtp_angle_l	lumbar_extension	lumbar_bending	lumbar_rotation	arm_flex_r	arm_add_r	arm_rot_r	elbow_flex_r	arm_flex_l	arm_add_l	arm_rot_l	elbow_flex_l	
          0.28115918	        -10.71592394	          2.60334824	         -0.56012790	          0.93626007	          0.88694732	         -0.00138295	          1.42558364	         -2.23088948	          4.06627536	        -53.08295967	         -9.39224487	         18.66695609	         18.81031090	         44.67373476	          7.26470653	          2.79620968	        -41.94571459	          7.17670365	         -1.81840480	         -0.20229976	         -0.83153092	         -4.48854957	          3.37207630	         13.14927281	         -1.01452319	         12.94491747	          3.41513716	         -7.53997451	         -5.18871829	         -1.55410160	         64.61657515	
          0.28678237	        -10.65288606	          2.53487669	         -0.67288972	          0.95586899	          0.88400318	         -0.00181408	          2.48315040	         -2.27087614	          3.82772351	        -55.19572797	         -8.21472807	         18.47261148	         17.48449975	         43.86745788	          7.61951576	          3.39087727	        -43.23833642	          9.50765296	         -2.32877880	          0.34475264	         -0.71430430	         -4.40037688	          3.22018452	         12.65810830	         -1.20970307	         12.57083843	          4.70128675	         -6.99281320	         -5.18032557	         -1.13376293	         62.60278055	
          0.29240555	        -10.59449884	          2.46918713	         -0.78441391	          0.97539103	          0.88105316	         -0.00223472	          3.63589472	         -2.30938589	          3.57372565	        -57.32644990	         -7.00171527	         18.20781825	         16.24905360	         42.91763297	          7.96754877	          3.98095725	        -44.45085005	         11.99649103	         -2.73815191	          1.33429515	         -0.60260065	         -4.31136548	          3.05729212	         12.08789099	         -1.43579423	         12.10522518	          6.25977575	         -6.37342816	         -5.16807358	         -0.66797933	         60.43071068	
          0.29802873	        -10.54396677	          2.40310154	         -0.88352556	          0.99471830	          0.87822600	         -0.00265278	          4.89057151	         -2.33234979	          3.31873502	        -59.45895702	         -5.77779830	         17.87222260	         15.09833655	         41.88195925	          8.30073060	          4.52895326	        -45.45735683	         14.27197802	         -3.17556329	          2.43897141	         -0.51020624	         -4.21755151	          2.87744187	         11.44611324	         -1.69002538	         11.53721536	          8.10149963	         -5.65222633	         -5.14988466	         -0.14356485	         58.06929468	
          0.30365192	        -10.50205739	          2.33603005	         -0.96881174	          1.01379357	          0.87561350	         -0.00306961	          6.24405685	         -2.33701319	          3.06770299	        -61.56786044	         -4.55315004	         17.47249947	         14.02483728	         40.83224257	          8.61695399	          5.03203646	        -46.36920501	         16.32850532	         -3.59660225	          3.60060876	         -0.44517141	         -4.11756775	          2.68433203	         10.73630445	         -1.96787065	         10.86625912	         10.22736931	         -4.81209012	         -5.12200202	          0.44960031	         55.50043524	
          0.30927510	        -10.46900685	          2.26370191	         -1.03934610	          1.03260851	          0.87328181	         -0.00348224	          7.68469738	         -2.31904388	          2.81851366	        -63.62050099	         -3.33013871	         17.01237584	         13.02291011	         39.79392795	          8.90672089	          5.48468719	        -47.21368885	         18.06630065	         -3.99612610	          4.85898077	         -0.40878630	         -4.00641108	          2.48047051	          9.95929893	         -2.26256649	         10.10289909	         12.62714975	         -3.84846297	         -5.07947689	          1.11702576	         52.71622055	
          0.31489828	        -10.44458211	          2.18073356	         -1.09491387	          1.05118255	          0.87127572	         -0.00388415	          9.19783824	         -2.27370651	          2.56679978	        -65.58500364	         -2.10971004	         16.49830998	         12.08846228	         38.75962663	          9.15744914	          5.88493479	        -47.97661634	         19.45882195	         -4.36516420	          6.25479407	         -0.39894408	         -3.87833896	          2.26755109	          9.11634216	         -2.56607242	          9.26569000	         15.28090662	         -2.76606148	         -5.01679348	          1.86004119	         49.71969218	
          0.32052147	        -10.42846107	          2.08346424	         -1.13602366	          1.06954923	          0.86962033	         -0.00426823	         10.76876820	         -2.19918882	          2.30703749	        -67.43418685	         -0.89287974	         15.93767422	         11.21727721	         37.70831283	          9.35865643	          6.23747187	        -48.63392832	         20.56879102	         -4.67742142	          7.77753563	         -0.41167983	         -3.72981043	          2.04724434	          8.21064223	         -2.87010927	          8.37737704	         18.16029136	         -1.57627648	         -4.92850950	          2.67687051	         46.52469025	
          0.32614465	        -10.42026224	          1.96904603	         -1.16291535	          1.08774368	          0.86832499	         -0.00462865	         12.38444681	         -2.09464443	          2.03429169	        -69.14866163	          0.31977071	         15.33711858	         10.40560374	         36.62047874	          9.50245618	          6.54932858	        -49.16323555	         21.45511052	         -4.91387282	          9.41390503	         -0.44301314	         -3.55836455	          1.82056429	          7.24856992	         -3.16726017	          7.46146688	         21.23060108	         -0.29464999	         -4.80936051	          3.56281788	         43.15466775	
          0.33176783	        -10.41956170	          1.83574119	         -1.17633089	          1.10579599	          0.86738898	         -0.00496137	         14.03429018	         -1.96025697	          1.74633266	        -70.71650834	          1.52621938	         14.70391712	          9.64977909	         35.48514271	          9.58359880	          6.82544808	        -49.55214766	         22.15434268	         -5.06623804	         11.15383464	         -0.48977697	         -3.36252958	          1.58867535	          6.24000611	         -3.45158038	          6.53976086	         24.45243482	          1.06056574	         -4.65458986	          4.51035183	         39.64161960	
          0.33739102	        -10.42593599	          1.68248793	         -1.17693559	          1.12373102	          0.86680476	         -0.00526358	         15.70962210	         -1.79662079	          1.44146647	        -72.13140746	          2.72456423	         14.04460788	          8.94587304	         34.29909404	          9.59831502	          7.06720752	        -49.79801053	         22.68722583	         -5.13125292	         12.98969318	         -0.54962894	         -3.14145450	          1.35227254	          5.19752209	         -3.71857320	          5.63077415	         27.78366171	          2.46843720	         -4.46069083	          5.50842794	         36.02614099	
          0.34301420	        -10.43900204	          1.50956665	         -1.16576562	          1.14157028	          0.86656021	         -0.00553358	         17.40323595	         -1.60500497	          1.12046626	        -73.39106706	          3.91254785	         13.36640890	          8.29037219	         33.06355573	          9.54572777	          7.27570270	        -49.90375357	         23.06476756	         -5.10997577	         14.91435985	         -0.62071006	         -2.89558107	          1.11207949	          4.13493133	         -3.96507013	          4.74864438	         31.18190363	          3.90535416	         -4.22590475	          6.54107714	         32.35694778	
          0.34863739	        -10.45838607	          1.31878077	         -1.14421386	          1.15933424	          0.86664049	         -0.00577135	         19.10879054	         -1.38800244	          0.78622674	        -74.49547073	          5.08636212	         12.67524401	          7.67956836	         31.78096206	          9.42815509	          7.45222532	        -49.87351340	         23.29327696	         -5.00844875	         16.91945041	         -0.70135328	         -2.62670412	          0.86876670	          3.06610197	         -4.18911548	          3.90351524	         34.60632697	          5.34519449	         -3.95087971	          7.58666387	         28.69010394	
